<svg width="204" height="40" viewBox="0 0 204 40" fill="none" xmlns="http://www.w3.org/2000/svg">
<path d="M13.168 39.336C10.704 39.336 8.49599 38.936 6.54399 38.136C4.59199 37.336 3.02399 36.152 1.83999 34.584C0.687991 33.016 0.0799912 31.128 0.0159912 28.92H8.75199C8.87999 30.168 9.31199 31.128 10.048 31.8C10.784 32.44 11.744 32.76 12.928 32.76C14.144 32.76 15.104 32.488 15.808 31.944C16.512 31.368 16.864 30.584 16.864 29.592C16.864 28.76 16.576 28.072 16 27.528C15.456 26.984 14.768 26.536 13.936 26.184C13.136 25.832 11.984 25.432 10.48 24.984C8.30399 24.312 6.52799 23.64 5.15199 22.968C3.77599 22.296 2.59199 21.304 1.59999 19.992C0.607991 18.68 0.111991 16.968 0.111991 14.856C0.111991 11.72 1.24799 9.272 3.51999 7.512C5.79199 5.72 8.75199 4.824 12.4 4.824C16.112 4.824 19.104 5.72 21.376 7.512C23.648 9.272 24.864 11.736 25.024 14.904H16.144C16.08 13.816 15.68 12.968 14.944 12.36C14.208 11.72 13.264 11.4 12.112 11.4C11.12 11.4 10.32 11.672 9.71199 12.216C9.10399 12.728 8.79999 13.48 8.79999 14.472C8.79999 15.56 9.31199 16.408 10.336 17.016C11.36 17.624 12.96 18.28 15.136 18.984C17.312 19.72 19.072 20.424 20.416 21.096C21.792 21.768 22.976 22.744 23.968 24.024C24.96 25.304 25.456 26.952 25.456 28.968C25.456 30.888 24.96 32.632 23.968 34.2C23.008 35.768 21.6 37.016 19.744 37.944C17.888 38.872 15.696 39.336 13.168 39.336Z" fill="#141414"/>
<path d="M28.8752 25.56C28.8752 22.808 29.3872 20.392 30.4112 18.312C31.4672 16.232 32.8912 14.632 34.6832 13.512C36.4752 12.392 38.4752 11.832 40.6832 11.832C42.5712 11.832 44.2192 12.216 45.6272 12.984C47.0672 13.752 48.1712 14.76 48.9392 16.008V12.216H57.1472V39H48.9392V35.208C48.1392 36.456 47.0192 37.464 45.5792 38.232C44.1712 39 42.5232 39.384 40.6352 39.384C38.4592 39.384 36.4752 38.824 34.6832 37.704C32.8912 36.552 31.4672 34.936 30.4112 32.856C29.3872 30.744 28.8752 28.312 28.8752 25.56ZM48.9392 25.608C48.9392 23.56 48.3632 21.944 47.2112 20.76C46.0912 19.576 44.7152 18.984 43.0832 18.984C41.4512 18.984 40.0592 19.576 38.9072 20.76C37.7872 21.912 37.2272 23.512 37.2272 25.56C37.2272 27.608 37.7872 29.24 38.9072 30.456C40.0592 31.64 41.4512 32.232 43.0832 32.232C44.7152 32.232 46.0912 31.64 47.2112 30.456C48.3632 29.272 48.9392 27.656 48.9392 25.608Z" fill="#141414"/>
<path d="M71.2934 16.008C72.0614 14.76 73.1654 13.752 74.6054 12.984C76.0454 12.216 77.6934 11.832 79.5494 11.832C81.7574 11.832 83.7574 12.392 85.5494 13.512C87.3414 14.632 88.7494 16.232 89.7734 18.312C90.8294 20.392 91.3574 22.808 91.3574 25.56C91.3574 28.312 90.8294 30.744 89.7734 32.856C88.7494 34.936 87.3414 36.552 85.5494 37.704C83.7574 38.824 81.7574 39.384 79.5494 39.384C77.6614 39.384 76.0134 39.016 74.6054 38.28C73.1974 37.512 72.0934 36.504 71.2934 35.256V39H63.0854V3.48H71.2934V16.008ZM83.0054 25.56C83.0054 23.512 82.4294 21.912 81.2774 20.76C80.1574 19.576 78.7654 18.984 77.1014 18.984C75.4694 18.984 74.0774 19.576 72.9254 20.76C71.8054 21.944 71.2454 23.56 71.2454 25.608C71.2454 27.656 71.8054 29.272 72.9254 30.456C74.0774 31.64 75.4694 32.232 77.1014 32.232C78.7334 32.232 80.1254 31.64 81.2774 30.456C82.4294 29.24 83.0054 27.608 83.0054 25.56Z" fill="#141414"/>
<path d="M103.871 16.68C104.831 15.208 106.031 14.056 107.471 13.224C108.911 12.36 110.511 11.928 112.271 11.928V20.616H110.015C107.967 20.616 106.431 21.064 105.407 21.96C104.383 22.824 103.871 24.36 103.871 26.568V39H95.6635V12.216H103.871V16.68Z" fill="#141414"/>
<path d="M120.323 9.432C118.883 9.432 117.699 9.016 116.771 8.184C115.875 7.32 115.427 6.264 115.427 5.016C115.427 3.736 115.875 2.68 116.771 1.848C117.699 0.984002 118.883 0.552002 120.323 0.552002C121.731 0.552002 122.883 0.984002 123.779 1.848C124.707 2.68 125.171 3.736 125.171 5.016C125.171 6.264 124.707 7.32 123.779 8.184C122.883 9.016 121.731 9.432 120.323 9.432ZM124.403 12.216V39H116.195V12.216H124.403Z" fill="#141414"/>
<path d="M146.671 11.928C149.807 11.928 152.303 12.952 154.159 15C156.047 17.016 156.991 19.8 156.991 23.352V39H148.831V24.456C148.831 22.664 148.367 21.272 147.439 20.28C146.511 19.288 145.263 18.792 143.695 18.792C142.127 18.792 140.879 19.288 139.951 20.28C139.023 21.272 138.559 22.664 138.559 24.456V39H130.351V12.216H138.559V15.768C139.391 14.584 140.511 13.656 141.919 12.984C143.327 12.28 144.911 11.928 146.671 11.928Z" fill="#141414"/>
<path d="M161.063 25.56C161.063 22.808 161.575 20.392 162.599 18.312C163.655 16.232 165.079 14.632 166.871 13.512C168.663 12.392 170.663 11.832 172.871 11.832C174.759 11.832 176.407 12.216 177.815 12.984C179.255 13.752 180.359 14.76 181.127 16.008V12.216H189.335V39H181.127V35.208C180.327 36.456 179.207 37.464 177.767 38.232C176.359 39 174.711 39.384 172.823 39.384C170.647 39.384 168.663 38.824 166.871 37.704C165.079 36.552 163.655 34.936 162.599 32.856C161.575 30.744 161.063 28.312 161.063 25.56ZM181.127 25.608C181.127 23.56 180.551 21.944 179.399 20.76C178.279 19.576 176.903 18.984 175.271 18.984C173.639 18.984 172.247 19.576 171.095 20.76C169.975 21.912 169.415 23.512 169.415 25.56C169.415 27.608 169.975 29.24 171.095 30.456C172.247 31.64 173.639 32.232 175.271 32.232C176.903 32.232 178.279 31.64 179.399 30.456C180.551 29.272 181.127 27.656 181.127 25.608Z" fill="#141414"/>
<path d="M199.113 39.384C197.673 39.384 196.489 38.968 195.561 38.136C194.665 37.272 194.217 36.216 194.217 34.968C194.217 33.688 194.665 32.616 195.561 31.752C196.489 30.888 197.673 30.456 199.113 30.456C200.521 30.456 201.673 30.888 202.569 31.752C203.497 32.616 203.961 33.688 203.961 34.968C203.961 36.216 203.497 37.272 202.569 38.136C201.673 38.968 200.521 39.384 199.113 39.384Z" fill="#85510C"/>
</svg>
