<svg width="32" height="32" viewBox="0 0 32 32" fill="none" xmlns="http://www.w3.org/2000/svg">
<path fill-rule="evenodd" clip-rule="evenodd" d="M26.1789 6.04746C23.5543 3.41885 20.0626 1.97105 16.343 1.96936C8.67837 1.96936 2.44071 8.20646 2.43732 15.8733C2.43428 18.3134 3.07462 20.7112 4.29378 22.825L2.32104 30.0307L9.69268 28.0969C11.7313 29.2074 14.0158 29.7894 16.3373 29.7897H16.343C24.0064 29.7897 30.2452 23.5514 30.248 15.8846C30.2491 12.1694 28.8042 8.67551 26.1789 6.04746V6.04746ZM16.343 27.441H16.3379C14.2682 27.4412 12.2366 26.8848 10.4558 25.8301L10.0336 25.5795L5.65916 26.727L6.82756 22.4626L6.55211 22.0252C5.39464 20.1827 4.78214 18.0503 4.78541 15.8744C4.78766 9.50186 9.97264 4.31801 16.3475 4.31801C17.8659 4.31445 19.37 4.6122 20.7725 5.19402C22.1751 5.77584 23.4483 6.63016 24.5184 7.70749C25.5945 8.77911 26.4474 10.0535 27.0279 11.4569C27.6083 12.8602 27.9047 14.3648 27.8999 15.8835C27.8977 22.256 22.7127 27.441 16.343 27.441Z" fill="url(#paint0_linear_14_232)"/>
<path fill-rule="evenodd" clip-rule="evenodd" d="M22.6822 18.7852C22.3351 18.6114 20.6265 17.7709 20.3081 17.6546C19.9898 17.5389 19.7578 17.4808 19.5264 17.8285C19.295 18.1768 18.6289 18.9591 18.4263 19.1911C18.2237 19.4225 18.021 19.4518 17.6733 19.278C17.3262 19.1041 16.2063 18.7372 14.8793 17.5536C13.8464 16.6324 13.1493 15.4945 12.9467 15.1468C12.7435 14.7986 12.9252 14.6106 13.0991 14.4373C13.2554 14.2815 13.4462 14.0315 13.62 13.8288C13.7939 13.6256 13.8515 13.4811 13.9677 13.2492C14.0835 13.0177 14.0253 12.8145 13.9384 12.6407C13.852 12.4668 13.1572 10.7566 12.8676 10.0612C12.5854 9.38385 12.2987 9.47529 12.0859 9.46457C11.8833 9.45441 11.6513 9.45215 11.4198 9.45215C11.1884 9.45215 10.8119 9.53907 10.493 9.88677C10.1747 10.2345 9.27722 11.0755 9.27722 12.7852C9.27722 14.4955 10.5224 16.1476 10.6957 16.3796C10.8695 16.611 13.1459 20.1207 16.6314 21.6255C17.2782 21.9043 17.9393 22.1487 18.612 22.3576C19.444 22.6223 20.2015 22.5845 20.8003 22.4953C21.4681 22.3954 22.856 21.6543 23.1456 20.8432C23.4352 20.0315 23.4352 19.3361 23.3482 19.1911C23.2613 19.046 23.0299 18.9596 22.6822 18.7852Z" fill="url(#paint1_linear_14_232)"/>
<defs>
<linearGradient id="paint0_linear_14_232" x1="16.2845" y1="1.96936" x2="16.2845" y2="30.0307" gradientUnits="userSpaceOnUse">
<stop stop-color="#522900"/>
<stop offset="1" stop-color="#D1AB85"/>
</linearGradient>
<linearGradient id="paint1_linear_14_232" x1="16.3381" y1="9.45215" x2="16.3381" y2="22.5619" gradientUnits="userSpaceOnUse">
<stop stop-color="#522900"/>
<stop offset="1" stop-color="#D1AB85"/>
</linearGradient>
</defs>
</svg>
